<svg width="36" height="35" viewBox="0 0 36 35" fill="none" xmlns="http://www.w3.org/2000/svg">
<path d="M0.0507812 23.5536C0.0507812 19.3425 0.0507812 15.1346 0.0507812 10.9236C0.0756883 10.8318 0.113049 10.7431 0.119276 10.6514C0.147296 10.2355 0.172203 9.81959 0.190883 9.40368C0.240697 8.23549 0.505335 7.1101 0.916301 6.0153C1.50473 4.44343 2.50413 3.1682 3.83043 2.14985C5.37778 0.963304 7.19599 0.412845 9.11695 0.223242C10.3281 0.103976 11.5516 0.11315 12.7689 0.0733946C13.1955 0.0581041 13.6251 0.0764527 14.0548 0.0672784C14.1606 0.0642203 14.2634 0.0244649 14.3692 0C16.5019 0 18.6314 0 20.7641 0C20.8326 0.0244649 20.9042 0.0672784 20.9727 0.0672784C22.1371 0.0948014 23.3015 0.0978595 24.4659 0.143731C25.2505 0.17737 26.0382 0.256881 26.8196 0.345566C27.9218 0.470949 28.9679 0.819573 29.9455 1.31193C30.9947 1.84098 31.91 2.55658 32.6759 3.45872C33.364 4.26912 33.8777 5.15903 34.2513 6.14068C34.821 7.63915 35.0047 9.19879 35.014 10.7859C35.014 10.9236 35.0576 11.0581 35.0825 11.1957C35.0825 15.2477 35.0825 19.2967 35.0825 23.3487C35.0576 23.3945 35.0172 23.4373 35.014 23.4863C34.986 23.9939 34.9798 24.5016 34.9362 25.0062C34.8833 25.6178 34.8521 26.2416 34.7152 26.838C34.2637 28.789 33.42 30.5291 31.8508 31.893C30.9137 32.7065 29.877 33.3211 28.7063 33.7218C27.1714 34.2447 25.5774 34.4098 23.9615 34.4098C23.8214 34.4098 23.6845 34.4526 23.5443 34.4771C19.5592 34.4771 15.5741 34.4771 11.589 34.4771C11.5205 34.4526 11.452 34.4129 11.3804 34.4098C10.3997 34.3395 9.41583 34.2967 8.43511 34.1958C7.40147 34.0887 6.41764 33.7799 5.48052 33.3487C4.33168 32.8196 3.35096 32.0796 2.50724 31.1346C1.88145 30.4343 1.39576 29.6545 1.03772 28.8104C0.371459 27.2294 0.113049 25.5658 0.119276 23.8594C0.119276 23.7584 0.0756883 23.6545 0.0507812 23.5536ZM23.4447 31.3395C23.4447 31.3273 23.4478 31.3181 23.4478 31.3059C24.1795 31.2478 24.9111 31.1896 25.6428 31.1346C26.7107 31.052 27.7163 30.7707 28.6534 30.2569C29.6808 29.6912 30.4498 28.8716 30.9729 27.8502C31.443 26.9358 31.6485 25.9328 31.7388 24.9205C31.8259 23.9205 31.882 22.9144 31.8789 21.9113C31.8758 18.5383 31.8384 15.1621 31.8166 11.789C31.8104 10.6514 31.7699 9.51989 31.5426 8.39756C31.2936 7.16209 30.7767 6.06423 29.8739 5.16514C29.0768 4.37615 28.0961 3.9052 27.0127 3.61468C25.6832 3.25994 24.3134 3.23548 22.9621 3.2263C19.1576 3.19572 15.3499 3.25994 11.5454 3.27218C10.4868 3.27523 9.43762 3.33028 8.40709 3.55352C6.8504 3.88991 5.5459 4.61163 4.61188 5.9205C3.83665 7.00613 3.50352 8.2416 3.40078 9.52907C3.29492 10.8593 3.27936 12.1957 3.25445 13.5291C3.23266 14.7676 3.23577 16.0092 3.25134 17.2477C3.28558 19.6973 3.3354 22.1438 3.39144 24.5933C3.41635 25.6514 3.6374 26.6667 4.07327 27.6453C4.62745 28.893 5.55212 29.8013 6.75389 30.419C7.69724 30.9052 8.74334 31.1101 9.79877 31.1927C10.9103 31.2783 12.028 31.3273 13.1425 31.3334C16.5735 31.3487 20.0075 31.3395 23.4447 31.3395Z" fill="#2F2F2F"/>
<path fill-rule="evenodd" clip-rule="evenodd" d="M8.53174 17.2783C8.51306 12.416 12.5449 8.19271 17.9684 8.40372C22.5638 8.58109 26.7045 12.2783 26.5831 17.4955C26.4773 22.211 22.654 26.1835 17.4142 26.1285C12.5449 26.0765 8.55976 22.2569 8.53174 17.2783ZM23.3359 17.2661C23.3826 14.0979 20.7175 11.5291 17.5512 11.5597C14.2572 11.5903 11.7603 14.0765 11.751 17.2692C11.7416 20.3517 14.1856 22.7707 17.2274 22.945C20.7175 23.1438 23.4417 20.26 23.3359 17.2661Z" fill="#2F2F2F"/>
<path fill-rule="evenodd" clip-rule="evenodd" d="M24.7958 8.08564C24.6588 7.02755 25.789 5.92665 26.9969 5.98476C28.015 6.03368 29.0767 6.93581 29.0455 8.1468C29.0175 9.17431 28.0804 10.2079 26.86 10.1804C25.8201 10.159 24.6962 9.25076 24.7958 8.08564Z" fill="#2F2F2F"/>
</svg>
