<svg width="35" height="33" viewBox="0 0 35 33" fill="none" xmlns="http://www.w3.org/2000/svg">
<g clip-path="url(#clip0)">
<path d="M9.66052 23.1942H14.7896V16.4736L19.7835 23.1942H24.9987V9.80573H19.8511L19.8726 16.7985L14.8326 9.80573H9.66052V23.1942Z" fill="#2F2F2F"/>
<path d="M0.0507812 22.5444C0.0507812 18.5138 0.0507812 14.4862 0.0507812 10.4556C0.0753665 10.3678 0.112244 10.2829 0.118391 10.1951C0.146049 9.79697 0.170634 9.39888 0.189073 9.0008C0.238244 7.88265 0.499463 6.80548 0.90512 5.75758C1.48595 4.25306 2.47243 3.03246 3.7816 2.05774C5.30896 0.922033 7.10368 0.395157 8.99982 0.213678C10.1953 0.099521 11.403 0.108302 12.6046 0.0702501C13.0257 0.0556147 13.4498 0.0731772 13.8739 0.064396C13.9783 0.0614689 14.0798 0.0234167 14.1842 0C16.2894 0 18.3914 0 20.4965 0C20.5641 0.0234167 20.6348 0.064396 20.7024 0.064396C21.8518 0.0907398 23.0011 0.0936668 24.1505 0.137573C24.9249 0.169771 25.7024 0.245875 26.4738 0.330761C27.5617 0.450772 28.5943 0.78446 29.5593 1.25572C30.5949 1.76211 31.4984 2.44705 32.2544 3.31054C32.9336 4.08622 33.4407 4.938 33.8094 5.87759C34.3718 7.31187 34.5531 8.80468 34.5624 10.3238C34.5624 10.4556 34.6054 10.5844 34.63 10.7161C34.63 14.5945 34.63 18.4699 34.63 22.3483C34.6054 22.3922 34.5654 22.4332 34.5624 22.48C34.5347 22.9659 34.5286 23.4518 34.4855 23.9348C34.4333 24.5202 34.4026 25.1174 34.2673 25.6881C33.8217 27.5556 32.9889 29.2211 31.44 30.5266C30.515 31.3052 29.4916 31.8936 28.3361 32.277C26.8211 32.7775 25.2476 32.9356 23.6526 32.9356C23.5144 32.9356 23.3791 32.9766 23.2408 33C19.3072 33 15.3736 33 11.4399 33C11.3723 32.9766 11.3047 32.9385 11.234 32.9356C10.266 32.8683 9.29484 32.8273 8.3268 32.7307C7.30651 32.6283 6.33539 32.3326 5.41037 31.9199C4.27638 31.4135 3.30833 30.7052 2.4755 29.8007C1.8578 29.1304 1.37839 28.384 1.02497 27.5761C0.367317 26.0628 0.112244 24.4705 0.118391 22.8371C0.118391 22.7406 0.0753665 22.641 0.0507812 22.5444ZM23.1425 29.9968C23.1425 29.9851 23.1456 29.9763 23.1456 29.9646C23.8678 29.909 24.59 29.8534 25.3122 29.8007C26.3662 29.7217 27.3589 29.4524 28.2839 28.9606C29.298 28.4191 30.0571 27.6346 30.5734 26.657C31.0374 25.7818 31.2403 24.8217 31.3294 23.8528C31.4154 22.8957 31.4708 21.9327 31.4677 20.9726C31.4646 17.744 31.4277 14.5125 31.4062 11.2839C31.4001 10.1951 31.3601 9.11203 31.1358 8.03779C30.8899 6.85524 30.3798 5.80442 29.4886 4.94385C28.7018 4.18866 27.7338 3.73789 26.6643 3.45982C25.3521 3.12028 23.9999 3.09686 22.6662 3.08808C18.9108 3.05881 15.1523 3.12028 11.3969 3.13199C10.352 3.13491 9.31636 3.1876 8.29914 3.40128C6.76256 3.72326 5.47491 4.41405 4.55296 5.66684C3.78774 6.70596 3.45892 7.8885 3.3575 9.12081C3.25301 10.3941 3.23765 11.6732 3.21306 12.9494C3.19155 14.1349 3.19462 15.3233 3.20999 16.5088C3.24379 18.8534 3.29296 21.1951 3.34828 23.5396C3.37287 24.5524 3.59106 25.5242 4.0213 26.4609C4.56833 27.6551 5.48105 28.5245 6.66729 29.1158C7.59846 29.5812 8.63104 29.7773 9.67284 29.8563C10.77 29.9383 11.8732 29.9851 12.9734 29.991C16.36 30.0056 19.7497 29.9968 23.1425 29.9968Z" fill="#2F2F2F"/>
</g>
<defs>
<clipPath id="clip0">
<rect width="34.5761" height="33" fill="white" transform="translate(0.0507812)"/>
</clipPath>
</defs>
</svg>
